STARTFONT 2.1
FONT -dse-hackfont-medium-r-condensed--20-140-100-100-c-140-fontspecific-0
SIZE 140 100 100
FONTBOUNDINGBOX 7 20 0 -4
STARTPROPERTIES 20
DEFAULT_CHAR 32
FONTNAME_REGISTRY ""
FOUNDRY "dse"
FAMILY_NAME "dotmatrix2"
WEIGHT_NAME "medium"
SLANT "r"
SETWIDTH_NAME "condensed"
ADD_STYLE_NAME ""
POINT_SIZE 1
PIXEL_SIZE 20
RESOLUTION_X 100
RESOLUTION_Y 100
FONT_ASCENT 16
FONT_DESCENT 4
AVERAGE_WIDTH 70
SPACING "C"
_XMBDFED_INFO "Edited with xmbdfed 4.5."
CHARSET_REGISTRY "fontspecific"
CHARSET_ENCODING "0"
COPYRIGHT "Copyright (C) 2002 by Darren Stuart Embry"
ENDPROPERTIES
CHARS 110
STARTCHAR char11
ENCODING 11
SWIDTH 36 0
DWIDTH 7 0
BBX 7 20 0 -4
BITMAP
10
10
10
10
10
10
10
10
F0
F0
00
00
00
00
00
00
00
00
00
00
ENDCHAR
STARTCHAR char12
ENCODING 12
SWIDTH 36 0
DWIDTH 7 0
BBX 7 20 0 -4
BITMAP
00
00
00
00
00
00
00
00
F0
F0
10
10
10
10
10
10
10
10
10
10
ENDCHAR
STARTCHAR char13
ENCODING 13
SWIDTH 36 0
DWIDTH 7 0
BBX 7 20 0 -4
BITMAP
00
00
00
00
00
00
00
00
1E
1E
10
10
10
10
10
10
10
10
10
10
ENDCHAR
STARTCHAR char14
ENCODING 14
SWIDTH 36 0
DWIDTH 7 0
BBX 7 20 0 -4
BITMAP
10
10
10
10
10
10
10
10
1E
1E
00
00
00
00
00
00
00
00
00
00
ENDCHAR
STARTCHAR char15
ENCODING 15
SWIDTH 36 0
DWIDTH 7 0
BBX 7 20 0 -4
BITMAP
10
10
10
10
10
10
10
10
FE
FE
10
10
10
10
10
10
10
10
10
10
ENDCHAR
STARTCHAR char16
ENCODING 16
SWIDTH 36 0
DWIDTH 7 0
BBX 7 20 0 -4
BITMAP
FE
FE
00
00
00
00
00
00
00
00
00
00
00
00
00
00
00
00
00
00
ENDCHAR
STARTCHAR char17
ENCODING 17
SWIDTH 36 0
DWIDTH 7 0
BBX 7 20 0 -4
BITMAP
00
00
00
00
FE
FE
00
00
00
00
00
00
00
00
00
00
00
00
00
00
ENDCHAR
STARTCHAR char18
ENCODING 18
SWIDTH 36 0
DWIDTH 7 0
BBX 7 20 0 -4
BITMAP
00
00
00
00
00
00
00
00
FE
FE
00
00
00
00
00
00
00
00
00
00
ENDCHAR
STARTCHAR char19
ENCODING 19
SWIDTH 36 0
DWIDTH 7 0
BBX 7 20 0 -4
BITMAP
00
00
00
00
00
00
00
00
00
00
00
00
FE
FE
00
00
00
00
00
00
ENDCHAR
STARTCHAR char20
ENCODING 20
SWIDTH 36 0
DWIDTH 7 0
BBX 7 20 0 -4
BITMAP
00
00
00
00
00
00
00
00
00
00
00
00
00
00
00
00
FE
FE
00
00
ENDCHAR
STARTCHAR char21
ENCODING 21
SWIDTH 36 0
DWIDTH 7 0
BBX 7 20 0 -4
BITMAP
10
10
10
10
10
10
10
10
1E
1E
10
10
10
10
10
10
10
10
10
10
ENDCHAR
STARTCHAR char22
ENCODING 22
SWIDTH 36 0
DWIDTH 7 0
BBX 7 20 0 -4
BITMAP
10
10
10
10
10
10
10
10
F0
F0
10
10
10
10
10
10
10
10
10
10
ENDCHAR
STARTCHAR char23
ENCODING 23
SWIDTH 36 0
DWIDTH 7 0
BBX 7 20 0 -4
BITMAP
10
10
10
10
10
10
10
10
FE
FE
00
00
00
00
00
00
00
00
00
00
ENDCHAR
STARTCHAR char24
ENCODING 24
SWIDTH 36 0
DWIDTH 7 0
BBX 7 20 0 -4
BITMAP
00
00
00
00
00
00
00
00
FE
FE
10
10
10
10
10
10
10
10
10
10
ENDCHAR
STARTCHAR char25
ENCODING 25
SWIDTH 36 0
DWIDTH 7 0
BBX 7 20 0 -4
BITMAP
10
10
10
10
10
10
10
10
10
10
10
10
10
10
10
10
10
10
10
10
ENDCHAR
STARTCHAR char32
ENCODING 32
SWIDTH 36 0
DWIDTH 7 0
BBX 7 20 0 -4
BITMAP
00
00
00
00
00
00
00
00
00
00
00
00
00
00
00
00
00
00
00
00
ENDCHAR
STARTCHAR char33
ENCODING 33
SWIDTH 36 0
DWIDTH 7 0
BBX 7 20 0 -4
BITMAP
00
00
10
10
10
10
10
10
10
10
10
10
00
00
10
10
00
00
00
00
ENDCHAR
STARTCHAR char34
ENCODING 34
SWIDTH 36 0
DWIDTH 7 0
BBX 7 20 0 -4
BITMAP
00
00
28
28
28
28
28
28
00
00
00
00
00
00
00
00
00
00
00
00
ENDCHAR
STARTCHAR char35
ENCODING 35
SWIDTH 36 0
DWIDTH 7 0
BBX 7 20 0 -4
BITMAP
00
00
28
28
28
28
7C
7C
28
28
7C
7C
28
28
28
28
00
00
00
00
ENDCHAR
STARTCHAR char36
ENCODING 36
SWIDTH 36 0
DWIDTH 7 0
BBX 7 20 0 -4
BITMAP
00
00
10
10
3C
3C
50
50
38
38
14
14
78
78
10
10
00
00
00
00
ENDCHAR
STARTCHAR char37
ENCODING 37
SWIDTH 36 0
DWIDTH 7 0
BBX 7 20 0 -4
BITMAP
00
00
60
60
64
64
08
08
10
10
20
20
4C
4C
0C
0C
00
00
00
00
ENDCHAR
STARTCHAR char38
ENCODING 38
SWIDTH 36 0
DWIDTH 7 0
BBX 7 20 0 -4
BITMAP
00
00
20
20
50
50
50
50
20
20
54
54
48
48
34
34
00
00
00
00
ENDCHAR
STARTCHAR char39
ENCODING 39
SWIDTH 36 0
DWIDTH 7 0
BBX 7 20 0 -4
BITMAP
00
00
10
10
10
10
10
10
00
00
00
00
00
00
00
00
00
00
00
00
ENDCHAR
STARTCHAR char40
ENCODING 40
SWIDTH 36 0
DWIDTH 7 0
BBX 7 20 0 -4
BITMAP
00
00
08
08
10
10
20
20
20
20
20
20
10
10
08
08
00
00
00
00
ENDCHAR
STARTCHAR char41
ENCODING 41
SWIDTH 36 0
DWIDTH 7 0
BBX 7 20 0 -4
BITMAP
00
00
20
20
10
10
08
08
08
08
08
08
10
10
20
20
00
00
00
00
ENDCHAR
STARTCHAR char42
ENCODING 42
SWIDTH 36 0
DWIDTH 7 0
BBX 7 20 0 -4
BITMAP
00
00
10
10
54
54
38
38
10
10
38
38
54
54
10
10
00
00
00
00
ENDCHAR
STARTCHAR char43
ENCODING 43
SWIDTH 36 0
DWIDTH 7 0
BBX 7 20 0 -4
BITMAP
00
00
00
00
10
10
10
10
7C
7C
10
10
10
10
00
00
00
00
00
00
ENDCHAR
STARTCHAR char44
ENCODING 44
SWIDTH 36 0
DWIDTH 7 0
BBX 7 20 0 -4
BITMAP
00
00
00
00
00
00
00
00
00
00
00
00
00
00
10
10
10
10
20
20
ENDCHAR
STARTCHAR char45
ENCODING 45
SWIDTH 36 0
DWIDTH 7 0
BBX 7 20 0 -4
BITMAP
00
00
00
00
00
00
00
00
7C
7C
00
00
00
00
00
00
00
00
00
00
ENDCHAR
STARTCHAR char46
ENCODING 46
SWIDTH 36 0
DWIDTH 7 0
BBX 7 20 0 -4
BITMAP
00
00
00
00
00
00
00
00
00
00
00
00
00
00
10
10
00
00
00
00
ENDCHAR
STARTCHAR char47
ENCODING 47
SWIDTH 36 0
DWIDTH 7 0
BBX 7 20 0 -4
BITMAP
00
00
00
00
04
04
08
08
10
10
20
20
40
40
00
00
00
00
00
00
ENDCHAR
STARTCHAR char48
ENCODING 48
SWIDTH 36 0
DWIDTH 7 0
BBX 7 20 0 -4
BITMAP
00
00
38
38
44
44
4C
4C
54
54
64
64
44
44
38
38
00
00
00
00
ENDCHAR
STARTCHAR char49
ENCODING 49
SWIDTH 36 0
DWIDTH 7 0
BBX 7 20 0 -4
BITMAP
00
00
10
10
30
30
10
10
10
10
10
10
10
10
38
38
00
00
00
00
ENDCHAR
STARTCHAR char50
ENCODING 50
SWIDTH 36 0
DWIDTH 7 0
BBX 7 20 0 -4
BITMAP
00
00
38
38
44
44
04
04
18
18
20
20
40
40
7C
7C
00
00
00
00
ENDCHAR
STARTCHAR char51
ENCODING 51
SWIDTH 36 0
DWIDTH 7 0
BBX 7 20 0 -4
BITMAP
00
00
7C
7C
04
04
08
08
18
18
04
04
44
44
38
38
00
00
00
00
ENDCHAR
STARTCHAR char52
ENCODING 52
SWIDTH 36 0
DWIDTH 7 0
BBX 7 20 0 -4
BITMAP
00
00
08
08
18
18
28
28
48
48
7C
7C
08
08
08
08
00
00
00
00
ENDCHAR
STARTCHAR char53
ENCODING 53
SWIDTH 36 0
DWIDTH 7 0
BBX 7 20 0 -4
BITMAP
00
00
7C
7C
40
40
78
78
04
04
04
04
44
44
38
38
00
00
00
00
ENDCHAR
STARTCHAR char54
ENCODING 54
SWIDTH 36 0
DWIDTH 7 0
BBX 7 20 0 -4
BITMAP
00
00
1C
1C
20
20
40
40
78
78
44
44
44
44
38
38
00
00
00
00
ENDCHAR
STARTCHAR char55
ENCODING 55
SWIDTH 36 0
DWIDTH 7 0
BBX 7 20 0 -4
BITMAP
00
00
7C
7C
04
04
08
08
10
10
20
20
20
20
20
20
00
00
00
00
ENDCHAR
STARTCHAR char56
ENCODING 56
SWIDTH 36 0
DWIDTH 7 0
BBX 7 20 0 -4
BITMAP
00
00
38
38
44
44
44
44
38
38
44
44
44
44
38
38
00
00
00
00
ENDCHAR
STARTCHAR char57
ENCODING 57
SWIDTH 36 0
DWIDTH 7 0
BBX 7 20 0 -4
BITMAP
00
00
38
38
44
44
44
44
3C
3C
04
04
08
08
70
70
00
00
00
00
ENDCHAR
STARTCHAR char58
ENCODING 58
SWIDTH 36 0
DWIDTH 7 0
BBX 7 20 0 -4
BITMAP
00
00
00
00
00
00
10
10
00
00
00
00
00
00
10
10
00
00
00
00
ENDCHAR
STARTCHAR char59
ENCODING 59
SWIDTH 36 0
DWIDTH 7 0
BBX 7 20 0 -4
BITMAP
00
00
00
00
00
00
10
10
00
00
00
00
00
00
10
10
10
10
20
20
ENDCHAR
STARTCHAR char60
ENCODING 60
SWIDTH 36 0
DWIDTH 7 0
BBX 7 20 0 -4
BITMAP
00
00
08
08
10
10
20
20
40
40
20
20
10
10
08
08
00
00
00
00
ENDCHAR
STARTCHAR char61
ENCODING 61
SWIDTH 36 0
DWIDTH 7 0
BBX 7 20 0 -4
BITMAP
00
00
00
00
00
00
7C
7C
00
00
7C
7C
00
00
00
00
00
00
00
00
ENDCHAR
STARTCHAR char62
ENCODING 62
SWIDTH 36 0
DWIDTH 7 0
BBX 7 20 0 -4
BITMAP
00
00
20
20
10
10
08
08
04
04
08
08
10
10
20
20
00
00
00
00
ENDCHAR
STARTCHAR char63
ENCODING 63
SWIDTH 36 0
DWIDTH 7 0
BBX 7 20 0 -4
BITMAP
00
00
38
38
44
44
08
08
10
10
10
10
00
00
10
10
00
00
00
00
ENDCHAR
STARTCHAR char64
ENCODING 64
SWIDTH 36 0
DWIDTH 7 0
BBX 7 20 0 -4
BITMAP
00
00
38
38
44
44
54
54
5C
5C
58
58
40
40
38
38
00
00
00
00
ENDCHAR
STARTCHAR char65
ENCODING 65
SWIDTH 36 0
DWIDTH 7 0
BBX 7 20 0 -4
BITMAP
00
00
10
10
28
28
44
44
44
44
7C
7C
44
44
44
44
00
00
00
00
ENDCHAR
STARTCHAR char66
ENCODING 66
SWIDTH 36 0
DWIDTH 7 0
BBX 7 20 0 -4
BITMAP
00
00
78
78
44
44
44
44
78
78
44
44
44
44
78
78
00
00
00
00
ENDCHAR
STARTCHAR char67
ENCODING 67
SWIDTH 36 0
DWIDTH 7 0
BBX 7 20 0 -4
BITMAP
00
00
38
38
44
44
40
40
40
40
40
40
44
44
38
38
00
00
00
00
ENDCHAR
STARTCHAR char68
ENCODING 68
SWIDTH 36 0
DWIDTH 7 0
BBX 7 20 0 -4
BITMAP
00
00
78
78
44
44
44
44
44
44
44
44
44
44
78
78
00
00
00
00
ENDCHAR
STARTCHAR char69
ENCODING 69
SWIDTH 36 0
DWIDTH 7 0
BBX 7 20 0 -4
BITMAP
00
00
7C
7C
40
40
40
40
78
78
40
40
40
40
7C
7C
00
00
00
00
ENDCHAR
STARTCHAR char70
ENCODING 70
SWIDTH 36 0
DWIDTH 7 0
BBX 7 20 0 -4
BITMAP
00
00
7C
7C
40
40
40
40
78
78
40
40
40
40
40
40
00
00
00
00
ENDCHAR
STARTCHAR char71
ENCODING 71
SWIDTH 36 0
DWIDTH 7 0
BBX 7 20 0 -4
BITMAP
00
00
3C
3C
40
40
40
40
40
40
4C
4C
44
44
3C
3C
00
00
00
00
ENDCHAR
STARTCHAR char72
ENCODING 72
SWIDTH 36 0
DWIDTH 7 0
BBX 7 20 0 -4
BITMAP
00
00
44
44
44
44
44
44
7C
7C
44
44
44
44
44
44
00
00
00
00
ENDCHAR
STARTCHAR char73
ENCODING 73
SWIDTH 36 0
DWIDTH 7 0
BBX 7 20 0 -4
BITMAP
00
00
38
38
10
10
10
10
10
10
10
10
10
10
38
38
00
00
00
00
ENDCHAR
STARTCHAR char74
ENCODING 74
SWIDTH 36 0
DWIDTH 7 0
BBX 7 20 0 -4
BITMAP
00
00
04
04
04
04
04
04
04
04
04
04
44
44
38
38
00
00
00
00
ENDCHAR
STARTCHAR char75
ENCODING 75
SWIDTH 36 0
DWIDTH 7 0
BBX 7 20 0 -4
BITMAP
00
00
44
44
48
48
50
50
60
60
50
50
48
48
44
44
00
00
00
00
ENDCHAR
STARTCHAR char76
ENCODING 76
SWIDTH 36 0
DWIDTH 7 0
BBX 7 20 0 -4
BITMAP
00
00
40
40
40
40
40
40
40
40
40
40
40
40
7C
7C
00
00
00
00
ENDCHAR
STARTCHAR char77
ENCODING 77
SWIDTH 36 0
DWIDTH 7 0
BBX 7 20 0 -4
BITMAP
00
00
44
44
6C
6C
54
54
54
54
44
44
44
44
44
44
00
00
00
00
ENDCHAR
STARTCHAR char78
ENCODING 78
SWIDTH 36 0
DWIDTH 7 0
BBX 7 20 0 -4
BITMAP
00
00
44
44
44
44
64
64
54
54
4C
4C
44
44
44
44
00
00
00
00
ENDCHAR
STARTCHAR char79
ENCODING 79
SWIDTH 36 0
DWIDTH 7 0
BBX 7 20 0 -4
BITMAP
00
00
38
38
44
44
44
44
44
44
44
44
44
44
38
38
00
00
00
00
ENDCHAR
STARTCHAR char80
ENCODING 80
SWIDTH 36 0
DWIDTH 7 0
BBX 7 20 0 -4
BITMAP
00
00
78
78
44
44
44
44
78
78
40
40
40
40
40
40
00
00
00
00
ENDCHAR
STARTCHAR char81
ENCODING 81
SWIDTH 36 0
DWIDTH 7 0
BBX 7 20 0 -4
BITMAP
00
00
38
38
44
44
44
44
44
44
54
54
48
48
34
34
00
00
00
00
ENDCHAR
STARTCHAR char82
ENCODING 82
SWIDTH 36 0
DWIDTH 7 0
BBX 7 20 0 -4
BITMAP
00
00
78
78
44
44
44
44
78
78
50
50
48
48
44
44
00
00
00
00
ENDCHAR
STARTCHAR char83
ENCODING 83
SWIDTH 36 0
DWIDTH 7 0
BBX 7 20 0 -4
BITMAP
00
00
38
38
44
44
40
40
38
38
04
04
44
44
38
38
00
00
00
00
ENDCHAR
STARTCHAR char84
ENCODING 84
SWIDTH 36 0
DWIDTH 7 0
BBX 7 20 0 -4
BITMAP
00
00
7C
7C
10
10
10
10
10
10
10
10
10
10
10
10
00
00
00
00
ENDCHAR
STARTCHAR char85
ENCODING 85
SWIDTH 36 0
DWIDTH 7 0
BBX 7 20 0 -4
BITMAP
00
00
44
44
44
44
44
44
44
44
44
44
44
44
38
38
00
00
00
00
ENDCHAR
STARTCHAR char86
ENCODING 86
SWIDTH 36 0
DWIDTH 7 0
BBX 7 20 0 -4
BITMAP
00
00
44
44
44
44
44
44
44
44
44
44
28
28
10
10
00
00
00
00
ENDCHAR
STARTCHAR char87
ENCODING 87
SWIDTH 36 0
DWIDTH 7 0
BBX 7 20 0 -4
BITMAP
00
00
44
44
44
44
44
44
54
54
54
54
6C
6C
44
44
00
00
00
00
ENDCHAR
STARTCHAR char88
ENCODING 88
SWIDTH 36 0
DWIDTH 7 0
BBX 7 20 0 -4
BITMAP
00
00
44
44
44
44
28
28
10
10
28
28
44
44
44
44
00
00
00
00
ENDCHAR
STARTCHAR char89
ENCODING 89
SWIDTH 36 0
DWIDTH 7 0
BBX 7 20 0 -4
BITMAP
00
00
44
44
44
44
28
28
10
10
10
10
10
10
10
10
00
00
00
00
ENDCHAR
STARTCHAR char90
ENCODING 90
SWIDTH 36 0
DWIDTH 7 0
BBX 7 20 0 -4
BITMAP
00
00
7C
7C
04
04
08
08
10
10
20
20
40
40
7C
7C
00
00
00
00
ENDCHAR
STARTCHAR char91
ENCODING 91
SWIDTH 36 0
DWIDTH 7 0
BBX 7 20 0 -4
BITMAP
00
00
7C
7C
60
60
60
60
60
60
60
60
60
60
7C
7C
00
00
00
00
ENDCHAR
STARTCHAR char92
ENCODING 92
SWIDTH 36 0
DWIDTH 7 0
BBX 7 20 0 -4
BITMAP
00
00
00
00
40
40
20
20
10
10
08
08
04
04
00
00
00
00
00
00
ENDCHAR
STARTCHAR char93
ENCODING 93
SWIDTH 36 0
DWIDTH 7 0
BBX 7 20 0 -4
BITMAP
00
00
7C
7C
0C
0C
0C
0C
0C
0C
0C
0C
0C
0C
7C
7C
00
00
00
00
ENDCHAR
STARTCHAR char94
ENCODING 94
SWIDTH 36 0
DWIDTH 7 0
BBX 7 20 0 -4
BITMAP
00
00
10
10
28
28
44
44
00
00
00
00
00
00
00
00
00
00
00
00
ENDCHAR
STARTCHAR char95
ENCODING 95
SWIDTH 36 0
DWIDTH 7 0
BBX 7 20 0 -4
BITMAP
00
00
00
00
00
00
00
00
00
00
00
00
00
00
00
00
00
00
7C
7C
ENDCHAR
STARTCHAR char96
ENCODING 96
SWIDTH 36 0
DWIDTH 7 0
BBX 7 20 0 -4
BITMAP
00
00
10
10
10
10
08
08
00
00
00
00
00
00
00
00
00
00
00
00
ENDCHAR
STARTCHAR char97
ENCODING 97
SWIDTH 36 0
DWIDTH 7 0
BBX 7 20 0 -4
BITMAP
00
00
00
00
00
00
38
38
04
04
3C
3C
44
44
3C
3C
00
00
00
00
ENDCHAR
STARTCHAR char98
ENCODING 98
SWIDTH 36 0
DWIDTH 7 0
BBX 7 20 0 -4
BITMAP
00
00
40
40
40
40
78
78
44
44
44
44
44
44
78
78
00
00
00
00
ENDCHAR
STARTCHAR char99
ENCODING 99
SWIDTH 36 0
DWIDTH 7 0
BBX 7 20 0 -4
BITMAP
00
00
00
00
00
00
3C
3C
40
40
40
40
40
40
3C
3C
00
00
00
00
ENDCHAR
STARTCHAR char100
ENCODING 100
SWIDTH 36 0
DWIDTH 7 0
BBX 7 20 0 -4
BITMAP
00
00
04
04
04
04
3C
3C
44
44
44
44
44
44
3C
3C
00
00
00
00
ENDCHAR
STARTCHAR char101
ENCODING 101
SWIDTH 36 0
DWIDTH 7 0
BBX 7 20 0 -4
BITMAP
00
00
00
00
00
00
38
38
44
44
7C
7C
40
40
3C
3C
00
00
00
00
ENDCHAR
STARTCHAR char102
ENCODING 102
SWIDTH 36 0
DWIDTH 7 0
BBX 7 20 0 -4
BITMAP
00
00
18
18
24
24
20
20
78
78
20
20
20
20
20
20
00
00
00
00
ENDCHAR
STARTCHAR char103
ENCODING 103
SWIDTH 36 0
DWIDTH 7 0
BBX 7 20 0 -4
BITMAP
00
00
00
00
00
00
38
38
44
44
44
44
44
44
3C
3C
04
04
38
38
ENDCHAR
STARTCHAR char104
ENCODING 104
SWIDTH 36 0
DWIDTH 7 0
BBX 7 20 0 -4
BITMAP
00
00
40
40
40
40
78
78
44
44
44
44
44
44
44
44
00
00
00
00
ENDCHAR
STARTCHAR char105
ENCODING 105
SWIDTH 36 0
DWIDTH 7 0
BBX 7 20 0 -4
BITMAP
00
00
10
10
00
00
30
30
10
10
10
10
10
10
38
38
00
00
00
00
ENDCHAR
STARTCHAR char106
ENCODING 106
SWIDTH 36 0
DWIDTH 7 0
BBX 7 20 0 -4
BITMAP
00
00
08
08
00
00
18
18
08
08
08
08
08
08
08
08
48
48
30
30
ENDCHAR
STARTCHAR char107
ENCODING 107
SWIDTH 36 0
DWIDTH 7 0
BBX 7 20 0 -4
BITMAP
00
00
40
40
40
40
44
44
48
48
70
70
48
48
44
44
00
00
00
00
ENDCHAR
STARTCHAR char108
ENCODING 108
SWIDTH 36 0
DWIDTH 7 0
BBX 7 20 0 -4
BITMAP
00
00
30
30
10
10
10
10
10
10
10
10
10
10
38
38
00
00
00
00
ENDCHAR
STARTCHAR char109
ENCODING 109
SWIDTH 36 0
DWIDTH 7 0
BBX 7 20 0 -4
BITMAP
00
00
00
00
00
00
6C
6C
54
54
54
54
54
54
54
54
00
00
00
00
ENDCHAR
STARTCHAR char110
ENCODING 110
SWIDTH 36 0
DWIDTH 7 0
BBX 7 20 0 -4
BITMAP
00
00
00
00
00
00
78
78
44
44
44
44
44
44
44
44
00
00
00
00
ENDCHAR
STARTCHAR char111
ENCODING 111
SWIDTH 36 0
DWIDTH 7 0
BBX 7 20 0 -4
BITMAP
00
00
00
00
00
00
38
38
44
44
44
44
44
44
38
38
00
00
00
00
ENDCHAR
STARTCHAR char112
ENCODING 112
SWIDTH 36 0
DWIDTH 7 0
BBX 7 20 0 -4
BITMAP
00
00
00
00
00
00
78
78
44
44
44
44
44
44
78
78
40
40
40
40
ENDCHAR
STARTCHAR char113
ENCODING 113
SWIDTH 36 0
DWIDTH 7 0
BBX 7 20 0 -4
BITMAP
00
00
00
00
00
00
3C
3C
44
44
44
44
44
44
3C
3C
04
04
04
04
ENDCHAR
STARTCHAR char114
ENCODING 114
SWIDTH 36 0
DWIDTH 7 0
BBX 7 20 0 -4
BITMAP
00
00
00
00
00
00
5C
5C
60
60
40
40
40
40
40
40
00
00
00
00
ENDCHAR
STARTCHAR char115
ENCODING 115
SWIDTH 36 0
DWIDTH 7 0
BBX 7 20 0 -4
BITMAP
00
00
00
00
00
00
3C
3C
40
40
38
38
04
04
78
78
00
00
00
00
ENDCHAR
STARTCHAR char116
ENCODING 116
SWIDTH 36 0
DWIDTH 7 0
BBX 7 20 0 -4
BITMAP
00
00
00
00
20
20
78
78
20
20
20
20
24
24
18
18
00
00
00
00
ENDCHAR
STARTCHAR char117
ENCODING 117
SWIDTH 36 0
DWIDTH 7 0
BBX 7 20 0 -4
BITMAP
00
00
00
00
00
00
44
44
44
44
44
44
4C
4C
34
34
00
00
00
00
ENDCHAR
STARTCHAR char118
ENCODING 118
SWIDTH 36 0
DWIDTH 7 0
BBX 7 20 0 -4
BITMAP
00
00
00
00
00
00
44
44
44
44
44
44
28
28
10
10
00
00
00
00
ENDCHAR
STARTCHAR char119
ENCODING 119
SWIDTH 36 0
DWIDTH 7 0
BBX 7 20 0 -4
BITMAP
00
00
00
00
00
00
44
44
44
44
54
54
54
54
6C
6C
00
00
00
00
ENDCHAR
STARTCHAR char120
ENCODING 120
SWIDTH 36 0
DWIDTH 7 0
BBX 7 20 0 -4
BITMAP
00
00
00
00
00
00
44
44
28
28
10
10
28
28
44
44
00
00
00
00
ENDCHAR
STARTCHAR char121
ENCODING 121
SWIDTH 36 0
DWIDTH 7 0
BBX 7 20 0 -4
BITMAP
00
00
00
00
00
00
44
44
44
44
44
44
44
44
3C
3C
04
04
38
38
ENDCHAR
STARTCHAR char122
ENCODING 122
SWIDTH 36 0
DWIDTH 7 0
BBX 7 20 0 -4
BITMAP
00
00
00
00
00
00
7C
7C
08
08
10
10
20
20
7C
7C
00
00
00
00
ENDCHAR
STARTCHAR char123
ENCODING 123
SWIDTH 36 0
DWIDTH 7 0
BBX 7 20 0 -4
BITMAP
00
00
18
18
20
20
20
20
40
40
20
20
20
20
18
18
00
00
00
00
ENDCHAR
STARTCHAR char124
ENCODING 124
SWIDTH 36 0
DWIDTH 7 0
BBX 7 20 0 -4
BITMAP
00
00
10
10
10
10
10
10
00
00
10
10
10
10
10
10
00
00
00
00
ENDCHAR
STARTCHAR char125
ENCODING 125
SWIDTH 36 0
DWIDTH 7 0
BBX 7 20 0 -4
BITMAP
00
00
30
30
08
08
08
08
04
04
08
08
08
08
30
30
00
00
00
00
ENDCHAR
STARTCHAR char126
ENCODING 126
SWIDTH 36 0
DWIDTH 7 0
BBX 7 20 0 -4
BITMAP
00
00
20
20
54
54
08
08
00
00
00
00
00
00
00
00
00
00
00
00
ENDCHAR
ENDFONT
